<svg width="352" height="352" viewBox="0 0 352 352" fill="none" xmlns="http://www.w3.org/2000/svg">
<path d="M242.359 318.142L120.58 318.005C113.774 317.989 107.251 315.275 102.444 310.457C97.6365 305.638 94.9366 299.11 94.9366 292.304L95.1478 104.503C95.1631 97.6962 97.8777 91.1739 102.696 86.3665C107.514 81.5591 114.043 78.8592 120.849 78.8591L242.628 78.9961C249.434 79.0114 255.957 81.726 260.764 86.5442C265.572 91.3624 268.271 97.8909 268.271 104.697L268.06 292.498C268.045 299.305 265.33 305.827 260.512 310.634C255.694 315.442 249.165 318.142 242.359 318.142Z" fill="white"/>
<path d="M268.552 262.873L268.55 261.406C286.697 261.381 304.09 254.149 316.904 241.3C329.719 228.451 336.903 211.038 336.879 192.891C336.854 174.744 329.621 157.351 316.772 144.537C303.923 131.723 286.51 124.538 268.363 124.563L268.361 123.095C286.897 123.07 304.684 130.409 317.808 143.498C330.933 156.587 338.32 174.353 338.346 192.889C338.371 211.425 331.032 229.211 317.943 242.336C304.854 255.46 287.088 262.848 268.552 262.873Z" fill="#3F3D56"/>
<path d="M268.881 249.668L268.147 249.669L268.145 247.82L269.612 247.818L269.612 248.195C283.453 247.983 296.648 242.306 306.319 232.403C315.99 222.5 321.352 209.174 321.237 195.333C321.121 181.491 315.536 168.257 305.701 158.517C295.866 148.777 282.578 143.321 268.736 143.341L268.734 141.873C283.028 141.854 296.745 147.514 306.866 157.608C316.988 167.702 322.685 181.403 322.705 195.697C322.724 209.992 317.064 223.709 306.971 233.83C296.877 243.952 283.175 249.649 268.881 249.668L268.881 249.668Z" fill="#3F3D56"/>
<path d="M229.176 299.477L133.805 299.37C127.096 299.355 120.667 296.679 115.928 291.93C111.19 287.18 108.528 280.745 108.528 274.036L108.698 122.801C108.714 116.092 111.389 109.663 116.139 104.924C120.888 100.185 127.323 97.524 134.032 97.5239L229.403 97.6311C236.112 97.6463 242.541 100.322 247.28 105.071C252.018 109.821 254.68 116.256 254.68 122.965L254.51 274.2C254.495 280.909 251.819 287.338 247.069 292.077C242.32 296.816 235.885 299.477 229.176 299.477Z" fill="#F31F45"/>
<path d="M242.359 318.142L120.58 318.005C113.774 317.989 107.251 315.275 102.444 310.457C97.6365 305.638 94.9366 299.11 94.9366 292.304L95.1478 104.503C95.1631 97.6962 97.8777 91.1739 102.696 86.3665C107.514 81.5591 114.043 78.8592 120.849 78.8591L242.628 78.9961C249.434 79.0114 255.957 81.726 260.764 86.5442C265.572 91.3624 268.271 97.8909 268.271 104.697L268.06 292.498C268.045 299.305 265.33 305.827 260.512 310.634C255.694 315.442 249.165 318.142 242.359 318.142ZM120.847 80.3263C114.43 80.3263 108.275 82.8719 103.732 87.4046C99.1888 91.9372 96.6294 98.0868 96.6149 104.504L96.4037 292.305C96.4037 298.723 98.9493 304.878 103.482 309.421C108.015 313.964 114.164 316.523 120.582 316.538L242.361 316.674C248.778 316.674 254.934 314.129 259.476 309.596C264.019 305.064 266.579 298.914 266.593 292.497L266.804 104.696C266.804 98.2782 264.259 92.1229 259.726 87.58C255.193 83.0371 249.044 80.4777 242.626 80.4632L120.847 80.3263Z" fill="#3F3D56"/>
<path d="M248.114 72.7987C247.73 72.7982 247.349 72.8115 246.97 72.8326C248.286 69.1431 248.478 65.1465 247.523 61.3477C246.568 57.549 244.508 54.1187 241.604 51.4903C238.7 48.8618 235.081 47.1533 231.206 46.5806C227.332 46.0079 223.374 46.5966 219.833 48.2725C216.669 39.3326 209.852 33.1425 201.943 33.1336C194.034 33.1247 187.203 39.2995 184.019 48.2322C181.363 46.9688 178.46 46.3116 175.519 46.3083C172.579 46.305 169.674 46.9556 167.016 48.2131C163.851 39.2732 157.034 33.0831 149.126 33.0742C141.217 33.0654 134.386 39.2401 131.201 48.1729C127.664 46.4885 123.706 45.8909 119.829 46.4557C115.952 47.0204 112.329 48.7222 109.419 51.3458C106.509 53.9694 104.442 57.3969 103.48 61.1951C102.518 64.9932 102.703 68.9914 104.013 72.684C103.633 72.6546 103.251 72.6358 102.866 72.6353C91.9271 72.623 83.046 84.4366 83.0296 99.0217C83.0132 113.607 91.8677 125.44 102.806 125.453C111.816 125.463 119.424 117.448 121.839 106.474C124.728 109.366 128.44 111.294 132.468 111.993C136.495 112.693 140.641 112.129 144.336 110.381C147.5 119.321 154.317 125.511 162.226 125.52C171.235 125.53 178.843 117.515 181.258 106.54C184.147 109.433 187.86 111.361 191.887 112.06C195.915 112.76 200.06 112.196 203.755 110.447C206.92 119.387 213.737 125.577 221.646 125.586C229.554 125.595 236.385 119.421 239.57 110.488C242.252 111.766 245.188 112.424 248.159 112.414C251.13 112.404 254.061 111.725 256.735 110.428C259.408 109.131 261.755 107.25 263.603 104.923C265.451 102.596 266.751 99.8831 267.408 96.9853C268.065 94.0876 268.061 91.0792 267.398 88.183C266.734 85.2867 265.428 82.5769 263.575 80.2541C261.722 77.9314 259.37 76.0552 256.694 74.7647C254.017 73.4741 251.085 72.8022 248.114 72.7987L248.114 72.7987Z" fill="#F0F0F0"/>
</svg>
